<svg width="50" height="12" viewBox="0 0 50 12" fill="none" xmlns="http://www.w3.org/2000/svg">
<path d="M42.5586 0.00567079C41.6485 0.0760609 40.8171 0.452069 40.167 1.08736C39.2958 1.93828 38.8792 3.12957 39.0305 4.33956C39.1685 5.44799 39.7814 6.44236 40.7101 7.06518C40.8808 7.18012 40.9506 7.2211 41.1257 7.30931C41.5255 7.51157 41.9271 7.63186 42.4038 7.69156C42.5869 7.71383 43.0786 7.71383 43.2617 7.69156C43.619 7.64701 43.9268 7.5686 44.2479 7.44118C44.4698 7.35387 44.7785 7.18903 44.9722 7.05538L45.043 7.00726L45.9938 7.96332C49.3856 11.3732 49.3281 11.3153 49.3794 11.3447C49.5466 11.4383 49.7429 11.4115 49.8774 11.2761C50.0083 11.1442 50.0366 10.9562 49.9517 10.7834C49.9331 10.7451 49.543 10.3486 47.8007 8.59238C45.8443 6.62056 45.6745 6.44681 45.6851 6.43167C45.6922 6.42276 45.7205 6.38979 45.747 6.35771C46.3785 5.61282 46.7093 4.64073 46.6589 3.67487C46.6306 3.13135 46.5129 2.66268 46.2874 2.19222C46.1379 1.88126 45.9867 1.64425 45.7638 1.37249C45.67 1.25844 45.4144 1.00093 45.3003 0.905595C44.6927 0.398608 44.0064 0.103682 43.2343 0.018145C43.0804 0.00121572 42.7054 -0.00591239 42.5586 0.00567079ZM43.2484 0.851243C43.9356 0.956383 44.5335 1.26378 45.0014 1.75473C45.4578 2.23232 45.7346 2.8186 45.8239 3.4931C45.8452 3.65883 45.8452 4.04375 45.8239 4.21482C45.7762 4.58548 45.6842 4.89021 45.5215 5.21721C45.2588 5.74558 44.8325 6.19822 44.3186 6.49315C43.466 6.98231 42.4144 7.01884 41.5308 6.58937C40.6685 6.1706 40.0564 5.37403 39.8743 4.43312C39.8415 4.26205 39.8291 4.14532 39.8238 3.93861C39.8185 3.70873 39.8274 3.56171 39.861 3.35856C40.0034 2.49338 40.5172 1.72711 41.2655 1.26646C41.6661 1.01875 42.0924 0.879756 42.6028 0.829859C42.6222 0.828077 42.7478 0.827186 42.8814 0.828968C43.0733 0.831641 43.1503 0.836096 43.2484 0.851243Z" fill="black"/>
<path d="M2.14234 10H0.135677L0.755677 2.1867H3.88234L4.46901 4.8067L4.73568 6.13336L4.98901 4.81336L5.50901 2.1867H8.29568L8.86901 10H6.79568L6.45568 5.4067L6.37568 3.71336L5.35568 9.22003H3.61568L2.38901 3.71336L2.34901 5.4067L2.14234 10ZM12.9129 6.98003C12.9129 7.71781 12.9685 8.23114 13.0796 8.52003C13.1951 8.80892 13.3951 8.95336 13.6796 8.95336C13.8885 8.95336 14.0463 8.90225 14.1529 8.80003C14.2596 8.69336 14.3396 8.47781 14.3929 8.15336C14.4507 7.82447 14.4796 7.33336 14.4796 6.68003V5.07336C14.4796 4.43781 14.4174 3.96447 14.2929 3.65336C14.1685 3.34225 13.964 3.1867 13.6796 3.1867C13.3951 3.1867 13.1951 3.34003 13.0796 3.6467C12.9685 3.94892 12.9129 4.50225 12.9129 5.3067V6.98003ZM13.5396 10.14C13.1707 10.14 12.8374 10.1067 12.5396 10.04C12.2463 9.97336 11.9929 9.88003 11.7796 9.76003C11.5663 9.64003 11.3796 9.4867 11.2196 9.30003C11.064 9.11336 10.9374 8.91336 10.8396 8.70003C10.7463 8.4867 10.6707 8.23781 10.6129 7.95336C10.5551 7.66448 10.5151 7.37781 10.4929 7.09336C10.4707 6.80448 10.4596 6.48003 10.4596 6.12003C10.4596 5.5867 10.4863 5.12225 10.5396 4.7267C10.5974 4.33114 10.7018 3.96003 10.8529 3.61336C11.004 3.26225 11.204 2.97781 11.4529 2.76003C11.7063 2.54225 12.0307 2.37114 12.4263 2.2467C12.8263 2.12225 13.2974 2.06003 13.8396 2.06003C14.2129 2.06003 14.5485 2.09559 14.8463 2.1667C15.144 2.23336 15.3996 2.3267 15.6129 2.4467C15.8262 2.5667 16.0107 2.72225 16.1663 2.91336C16.3263 3.10447 16.4529 3.30892 16.5463 3.5267C16.644 3.74003 16.7218 3.99114 16.7796 4.28003C16.8374 4.56892 16.8774 4.85559 16.8996 5.14003C16.9218 5.42447 16.9329 5.7467 16.9329 6.1067C16.9329 6.64003 16.904 7.10448 16.8462 7.50003C16.7885 7.89559 16.684 8.2667 16.5329 8.61336C16.3818 8.95559 16.1796 9.23559 15.9262 9.45336C15.6729 9.6667 15.3463 9.83559 14.9463 9.96003C14.5507 10.08 14.0818 10.14 13.5396 10.14ZM20.1456 10L17.9389 2.1867H20.3989L20.9789 4.88003L21.5789 7.7067L22.1456 4.88003L22.7456 2.1867H24.4989L22.5656 10H20.1456ZM25.7292 10V2.1867H28.0025V10H25.7292ZM34.839 10H30.1123V2.1867H34.739L34.6056 3.76003L32.319 3.69336V5.20003H34.119V6.76003L32.319 6.6267V8.40003L34.839 8.33336V10Z" fill="black"/>
</svg>
