<svg width="55" height="9" viewBox="0 0 55 9" fill="none" xmlns="http://www.w3.org/2000/svg">
<path d="M2.40289 8.00012H0.396223L1.01622 0.186789H4.14289L4.72956 2.80679L4.99622 4.13346L5.24956 2.81346L5.76956 0.186789H8.55622L9.12956 8.00012H7.05622L6.71622 3.40679L6.63622 1.71346L5.61622 7.22012H3.87622L2.64956 1.71346L2.60956 3.40679L2.40289 8.00012ZM13.1735 4.98012C13.1735 5.7179 13.229 6.23123 13.3401 6.52012C13.4557 6.80901 13.6557 6.95346 13.9401 6.95346C14.149 6.95346 14.3068 6.90234 14.4135 6.80012C14.5201 6.69346 14.6001 6.4779 14.6535 6.15346C14.7112 5.82457 14.7401 5.33346 14.7401 4.68012V3.07346C14.7401 2.4379 14.6779 1.96457 14.5535 1.65346C14.429 1.34234 14.2246 1.18679 13.9401 1.18679C13.6557 1.18679 13.4557 1.34012 13.3401 1.64679C13.229 1.94901 13.1735 2.50234 13.1735 3.30679V4.98012ZM13.8001 8.14012C13.4312 8.14012 13.0979 8.10679 12.8001 8.04012C12.5068 7.97346 12.2535 7.88012 12.0401 7.76012C11.8268 7.64012 11.6401 7.48679 11.4801 7.30012C11.3246 7.11346 11.1979 6.91346 11.1001 6.70012C11.0068 6.48679 10.9312 6.2379 10.8735 5.95346C10.8157 5.66457 10.7757 5.3779 10.7535 5.09346C10.7312 4.80457 10.7201 4.48012 10.7201 4.12012C10.7201 3.58679 10.7468 3.12234 10.8001 2.72679C10.8579 2.33123 10.9624 1.96012 11.1135 1.61346C11.2646 1.26234 11.4646 0.9779 11.7135 0.760122C11.9668 0.542344 12.2912 0.371233 12.6868 0.246789C13.0868 0.122344 13.5579 0.0601224 14.1001 0.0601224C14.4735 0.0601224 14.809 0.0956779 15.1068 0.166789C15.4046 0.233456 15.6601 0.326789 15.8735 0.446789C16.0868 0.566789 16.2712 0.722344 16.4268 0.913455C16.5868 1.10457 16.7135 1.30901 16.8068 1.52679C16.9046 1.74012 16.9824 1.99123 17.0401 2.28012C17.0979 2.56901 17.1379 2.85568 17.1601 3.14012C17.1824 3.42457 17.1935 3.74679 17.1935 4.10679C17.1935 4.64012 17.1646 5.10457 17.1068 5.50012C17.049 5.89568 16.9446 6.26679 16.7935 6.61346C16.6424 6.95568 16.4401 7.23568 16.1868 7.45346C15.9335 7.66679 15.6068 7.83568 15.2068 7.96012C14.8112 8.08012 14.3424 8.14012 13.8001 8.14012ZM20.4061 8.00012L18.1995 0.186789H20.6595L21.2395 2.88012L21.8395 5.70679L22.4061 2.88012L23.0061 0.186789H24.7595L22.8261 8.00012H20.4061ZM25.9897 8.00012V0.186789H28.263V8.00012H25.9897ZM35.0995 8.00012H30.3728V0.186789H34.9995L34.8662 1.76012L32.5795 1.69346V3.20012H34.3795V4.76012L32.5795 4.62679V6.40012L35.0995 6.33346V8.00012ZM43.414 6.90679C43.7518 6.90679 44.0095 6.6979 44.1873 6.28012C44.3695 5.86234 44.4607 5.17346 44.4607 4.21346V3.54012C44.4607 2.8379 44.3762 2.29568 44.2073 1.91346C44.0384 1.53123 43.7984 1.34012 43.4873 1.34012H42.9873V6.90679H43.414ZM43.6207 8.04679C43.4607 8.04679 43.2118 8.0379 42.874 8.02012C42.5407 8.00679 42.1962 8.00012 41.8407 8.00012H40.7807V0.186789H41.8407C42.1384 0.182344 42.4629 0.171233 42.814 0.153455C43.1651 0.135678 43.4407 0.126789 43.6407 0.126789C44.774 0.126789 45.5851 0.444567 46.074 1.08012C46.5673 1.71568 46.814 2.64234 46.814 3.86012C46.814 4.27346 46.7851 4.66679 46.7273 5.04012C46.674 5.41346 46.5718 5.78901 46.4207 6.16679C46.2695 6.54012 46.0784 6.86234 45.8473 7.13346C45.6162 7.40457 45.3095 7.62457 44.9273 7.79346C44.5451 7.96234 44.1095 8.04679 43.6207 8.04679ZM51.3608 6.69346C51.6764 6.69346 51.9075 6.60457 52.0541 6.42679C52.2008 6.24901 52.2741 6.0379 52.2741 5.79346V5.32679C52.2741 5.0379 52.1808 4.83346 51.9941 4.71346C51.8075 4.58901 51.5964 4.52679 51.3608 4.52679H50.8408V6.69346H51.3608ZM52.1808 2.18679C52.1808 1.92012 52.1075 1.73568 51.9608 1.63346C51.8141 1.52679 51.603 1.47346 51.3275 1.47346H50.8408V3.40012H51.3808C51.6386 3.40012 51.8364 3.30012 51.9741 3.10012C52.1119 2.89568 52.1808 2.64679 52.1808 2.35346V2.18679ZM51.8141 8.06012C51.4675 8.06012 51.0186 8.05123 50.4675 8.03346C49.9164 8.01568 49.5208 8.00457 49.2808 8.00012H48.6408V0.186789H49.7941C50.0741 0.186789 50.3941 0.1779 50.7541 0.160122C51.1141 0.1379 51.3741 0.126789 51.5341 0.126789C52.0541 0.126789 52.4919 0.169011 52.8475 0.253455C53.2075 0.3379 53.4897 0.464567 53.6941 0.633455C53.8986 0.802344 54.043 0.9979 54.1275 1.22012C54.2164 1.44234 54.2608 1.70679 54.2608 2.01346C54.2608 2.48457 54.1519 2.88901 53.9341 3.22679C53.7164 3.56457 53.4008 3.77568 52.9875 3.86012C54.0364 3.95346 54.5608 4.56901 54.5608 5.70679C54.5608 6.04901 54.5097 6.36012 54.4075 6.64012C54.3053 6.91568 54.1475 7.16234 53.9341 7.38012C53.7253 7.59346 53.4408 7.76012 53.0808 7.88012C52.7208 8.00012 52.2986 8.06012 51.8141 8.06012Z" fill="black"/>
</svg>
